<svg width="1037" height="1037" viewBox="0 0 1037 1037" fill="none" xmlns="http://www.w3.org/2000/svg">
<path d="M518.5 1028.5C804.863 1028.5 1037 986.641 1037 934.996C1037 883.362 804.863 841.504 518.5 841.504C232.137 841.504 0 883.362 0 934.996C0 986.63 232.137 1028.5 518.5 1028.5Z" fill="url(#paint0_radial_8_5)"/>
<path d="M518.5 833.003C804.863 833.003 1037 648.427 1037 420.752C1037 193.066 804.863 8.50122 518.5 8.50122C232.137 8.50122 0 193.076 0 420.741C0 648.406 232.137 833.003 518.5 833.003Z" fill="url(#paint1_radial_8_5)"/>
<path fill-rule="evenodd" clip-rule="evenodd" d="M814.218 816.897C816.117 812.097 816.515 806.835 815.358 801.805C814.202 796.775 811.546 792.214 807.742 788.726C803.937 785.238 799.164 782.987 794.053 782.27C788.941 781.554 783.733 782.405 779.116 784.713C774.499 787.021 770.692 790.675 768.197 795.193C765.702 799.712 764.637 804.881 765.143 810.017C765.65 815.154 767.704 820.015 771.033 823.96C774.362 827.904 778.81 830.744 783.788 832.106C783.119 833.802 782.633 835.563 782.341 837.356C774.525 841.853 768.815 849.269 766.463 857.974C764.112 866.68 765.312 875.962 769.8 883.783C772.022 887.656 774.987 891.052 778.523 893.779C782.059 896.505 786.098 898.508 790.409 899.673C794.72 900.838 799.218 901.141 803.646 900.567C808.074 899.992 812.345 898.551 816.216 896.324C816.88 902.174 819.052 907.751 822.519 912.51C825.986 917.269 830.628 921.046 835.993 923.471C841.357 925.897 847.26 926.889 853.122 926.349C858.985 925.809 864.607 923.756 869.438 920.391C871.068 923.825 873.446 926.851 876.397 929.247C879.347 931.643 882.797 933.349 886.492 934.24C890.187 935.131 894.035 935.184 897.753 934.396C901.472 933.608 904.967 931.998 907.983 929.685C910.999 927.371 913.459 924.413 915.184 921.025C916.909 917.638 917.855 913.908 917.952 910.108C918.049 906.308 917.295 902.535 915.745 899.064C914.195 895.593 911.889 892.513 908.995 890.048C914.903 883.586 918.09 875.094 917.894 866.341C917.697 857.587 914.132 849.247 907.94 843.056C901.748 836.866 893.407 833.302 884.653 833.108C875.9 832.913 867.409 836.102 860.948 842.012C857.505 837.934 852.868 835.043 847.693 833.746C842.517 832.449 837.064 832.812 832.106 834.785C830.934 830.507 828.668 826.608 825.532 823.471C822.395 820.335 818.496 818.069 814.218 816.897ZM263.495 832.992C263.495 836.34 263.02 839.678 262.048 842.876C268.558 844.502 274.643 847.512 279.887 851.699C285.131 855.887 289.412 861.154 292.439 867.143C295.466 873.133 297.169 879.703 297.431 886.409C297.692 893.115 296.507 899.798 293.956 906.005C291.405 912.212 287.548 917.797 282.646 922.381C277.744 926.964 271.913 930.439 265.549 932.568C259.185 934.698 252.437 935.432 245.764 934.721C239.091 934.011 232.649 931.872 226.876 928.45C221.599 932.696 215.027 935.007 208.253 934.996C203.101 935.007 198.035 933.667 193.563 931.129C191.647 935.336 188.412 938.804 184.347 941.006C180.282 943.207 175.61 944.022 171.039 943.327C166.469 942.631 162.25 940.464 159.024 937.153C155.798 933.842 153.74 929.569 153.163 924.982C149.32 926.368 145.2 926.809 141.15 926.269C137.101 925.729 133.24 924.224 129.894 921.881C126.548 919.537 123.814 916.424 121.922 912.803C120.031 909.182 119.037 905.16 119.025 901.074C119.014 896.989 119.984 892.961 121.854 889.329C123.724 885.697 126.44 882.568 129.772 880.204C133.105 877.841 136.956 876.314 141.002 875.75C145.049 875.187 149.171 875.604 153.022 876.967C152.787 871.527 153.862 866.111 156.155 861.173C158.449 856.235 161.895 851.92 166.203 848.591C170.512 845.262 175.556 843.016 180.913 842.042C186.27 841.068 191.782 841.395 196.987 842.995C195.549 838.318 195.137 833.386 195.78 828.535C196.422 823.685 198.104 819.031 200.71 814.89C203.316 810.749 206.785 807.219 210.88 804.541C214.975 801.863 219.6 800.101 224.438 799.374C229.277 798.647 234.215 798.973 238.916 800.329C243.617 801.685 247.97 804.04 251.678 807.232C255.386 810.425 258.361 814.38 260.4 818.827C262.44 823.275 263.495 828.099 263.495 832.992Z" fill="url(#paint2_radial_8_5)"/>
<path fill-rule="evenodd" clip-rule="evenodd" d="M560.995 221C560.995 225.191 560.239 229.209 558.857 232.904C561.384 234.135 563.739 235.669 565.878 237.462C569.285 231.799 574.269 227.252 580.22 224.378C586.172 221.504 592.832 220.427 599.386 221.281C603.118 214.648 608.968 209.459 615.999 206.545C623.03 203.632 630.835 203.162 638.165 205.211C645.495 207.26 651.925 211.709 656.425 217.847C660.926 223.984 663.237 231.454 662.989 239.061C667.41 240.206 671.556 242.229 675.18 245.009C678.805 247.789 681.833 251.269 684.085 255.242C692.543 256.269 700.299 260.427 705.83 266.887C714.172 263.327 723.435 262.529 732.263 264.609C741.091 266.69 749.023 271.54 754.898 278.45C760.773 285.361 764.283 293.969 764.916 303.017C765.549 312.066 763.27 321.079 758.414 328.74C764.453 332.791 769.033 338.656 771.506 345.505C776.65 338.466 784.299 333.672 792.876 332.112C801.452 330.552 810.3 332.345 817.593 337.121C824.885 341.897 830.065 349.292 832.062 357.777C834.059 366.262 832.722 375.19 828.325 382.718C834.092 383.372 839.596 385.493 844.311 388.877C849.027 392.261 852.797 396.796 855.264 402.05C857.73 407.304 858.81 413.102 858.401 418.892C857.991 424.681 856.107 430.27 852.926 435.125C849.745 439.98 845.374 443.939 840.229 446.626C835.085 449.314 829.338 450.639 823.536 450.476C817.734 450.313 812.071 448.667 807.085 445.695C802.1 442.723 797.958 438.524 795.055 433.498H263.484V420.449C257.078 424.145 249.641 425.652 242.302 424.74C234.962 423.829 228.12 420.549 222.812 415.399C217.504 410.249 214.02 403.508 212.888 396.199C211.756 388.891 213.037 381.412 216.539 374.897C209.964 369.56 205.617 361.962 204.349 353.59C203.08 345.218 204.981 336.673 209.679 329.628C214.378 322.583 221.536 317.545 229.753 315.498C237.97 313.452 246.655 314.545 254.108 318.564C257.291 314.636 261.311 311.468 265.875 309.293C270.439 307.118 275.431 305.989 280.487 305.991C280.485 301.154 281.515 296.372 283.508 291.965C285.501 287.559 288.412 283.628 292.046 280.436C295.68 277.243 299.953 274.864 304.58 273.455C309.207 272.046 314.081 271.641 318.877 272.266C322.238 266.318 327.313 261.521 333.44 258.5C339.568 255.478 346.463 254.373 353.228 255.329C349.077 248.348 347.562 240.111 348.959 232.11C350.355 224.108 354.57 216.871 360.841 211.709C367.112 206.547 375.023 203.801 383.144 203.967C391.264 204.134 399.057 207.202 405.11 212.617C412.623 211.98 420.134 213.856 426.465 217.95C432.795 222.044 437.587 228.124 440.088 235.237C444.516 232.256 449.593 230.376 454.897 229.728C458.649 223.098 464.518 217.92 471.564 215.025C478.61 212.13 486.424 211.685 493.752 213.762C495.536 205.565 500.288 198.316 507.093 193.41C513.899 188.503 522.278 186.286 530.619 187.184C538.961 188.082 546.676 192.032 552.281 198.274C557.886 204.516 560.997 212.61 560.995 221Z" fill="url(#paint3_radial_8_5)"/>
<path opacity="0.6" d="M497.252 399.504C507.857 399.504 518.357 397.416 528.154 393.358C537.952 389.299 546.854 383.351 554.352 375.853C561.85 368.355 567.798 359.453 571.857 349.655C575.915 339.858 578.003 329.358 578.003 318.753C578.003 308.149 575.915 297.649 571.857 287.851C567.798 278.054 561.85 269.152 554.352 261.654C546.854 254.155 537.952 248.207 528.154 244.149C518.357 240.091 507.857 238.002 497.252 238.002C475.837 238.002 455.299 246.51 440.157 261.652C425.014 276.795 416.507 297.333 416.507 318.748C416.507 340.163 425.014 360.701 440.157 375.844C455.299 390.987 475.837 399.504 497.252 399.504Z" fill="url(#paint4_radial_8_5)"/>
<path opacity="0.6" d="M471.749 348.497C486.403 348.497 500.456 342.676 510.818 332.314C521.18 321.952 527.001 307.898 527.001 293.244C527.001 278.59 521.18 264.536 510.818 254.175C500.456 243.813 486.403 237.991 471.749 237.991C457.095 237.991 443.041 243.813 432.679 254.175C422.317 264.536 416.496 278.59 416.496 293.244C416.496 307.898 422.317 321.952 432.679 332.314C443.041 342.676 457.095 348.497 471.749 348.497Z" fill="url(#paint5_radial_8_5)"/>
<path opacity="0.6" d="M454.746 391.003C469.4 391.003 483.454 385.182 493.816 374.82C504.178 364.458 509.999 350.404 509.999 335.75C509.999 321.096 504.178 307.043 493.816 296.681C483.454 286.319 469.4 280.498 454.746 280.498C440.092 280.498 426.039 286.319 415.677 296.681C405.315 307.043 399.494 321.096 399.494 335.75C399.494 350.404 405.315 364.458 415.677 374.82C426.039 385.182 440.092 391.003 454.746 391.003Z" fill="url(#paint6_radial_8_5)"/>
<path opacity="0.6" d="M293.255 416.496C307.909 416.496 321.963 410.675 332.325 400.313C342.687 389.951 348.508 375.897 348.508 361.243C348.508 346.589 342.687 332.536 332.325 322.174C321.963 311.812 307.909 305.991 293.255 305.991C278.601 305.991 264.547 311.812 254.186 322.174C243.824 332.536 238.002 346.589 238.002 361.243C238.002 375.897 243.824 389.951 254.186 400.313C264.547 410.675 278.601 416.496 293.255 416.496Z" fill="url(#paint7_radial_8_5)"/>
<path opacity="0.6" d="M327.249 391.003C341.903 391.003 355.957 385.182 366.319 374.82C376.681 364.458 382.502 350.404 382.502 335.75C382.502 321.096 376.681 307.043 366.319 296.681C355.957 286.319 341.903 280.498 327.249 280.498C312.595 280.498 298.542 286.319 288.18 296.681C277.818 307.043 271.997 321.096 271.997 335.75C271.997 350.404 277.818 364.458 288.18 374.82C298.542 385.182 312.595 391.003 327.249 391.003Z" fill="url(#paint8_radial_8_5)"/>
<path opacity="0.6" d="M327.249 407.995C335.139 407.995 342.706 404.86 348.285 399.281C353.864 393.702 356.998 386.136 356.998 378.246C356.998 370.356 353.864 362.789 348.285 357.21C342.706 351.631 335.139 348.497 327.249 348.497C319.359 348.497 311.792 351.631 306.213 357.21C300.634 362.789 297.5 370.356 297.5 378.246C297.5 386.136 300.634 393.702 306.213 399.281C311.792 404.86 319.359 407.995 327.249 407.995Z" fill="url(#paint9_radial_8_5)"/>
<path opacity="0.2" d="M794.752 391.003C802.642 391.003 810.209 387.869 815.788 382.29C821.367 376.711 824.501 369.144 824.501 361.254C824.501 353.364 821.367 345.797 815.788 340.218C810.209 334.639 802.642 331.505 794.752 331.505C786.862 331.505 779.296 334.639 773.717 340.218C768.138 345.797 765.003 353.364 765.003 361.254C765.003 369.144 768.138 376.711 773.717 382.29C779.296 387.869 786.862 391.003 794.752 391.003Z" fill="url(#paint10_radial_8_5)"/>
<path opacity="0.2" d="M828.747 424.997C834.382 424.997 839.786 422.759 843.771 418.774C847.756 414.789 849.994 409.385 849.994 403.749C849.994 398.114 847.756 392.71 843.771 388.725C839.786 384.74 834.382 382.502 828.747 382.502C823.112 382.502 817.707 384.74 813.722 388.725C809.738 392.71 807.499 398.114 807.499 403.749C807.499 409.385 809.738 414.789 813.722 418.774C817.707 422.759 823.112 424.997 828.747 424.997Z" fill="url(#paint11_radial_8_5)"/>
<path opacity="0.3" d="M786.251 433.498C796.396 433.498 806.125 429.468 813.298 422.295C820.471 415.122 824.501 405.393 824.501 395.248C824.501 385.104 820.471 375.375 813.298 368.201C806.125 361.028 796.396 356.998 786.251 356.998C776.107 356.998 766.377 361.028 759.204 368.201C752.031 375.375 748.001 385.104 748.001 395.248C748.001 405.393 752.031 415.122 759.204 422.295C766.377 429.468 776.107 433.498 786.251 433.498Z" fill="url(#paint12_radial_8_5)"/>
<path opacity="0.2" d="M633.25 263.495C637.157 263.495 641.026 262.726 644.635 261.231C648.244 259.736 651.524 257.544 654.286 254.782C657.049 252.019 659.24 248.74 660.735 245.131C662.23 241.521 662.999 237.653 662.999 233.746C662.999 229.84 662.23 225.971 660.735 222.362C659.24 218.753 657.049 215.473 654.286 212.711C651.524 209.948 648.244 207.757 644.635 206.262C641.026 204.767 637.157 203.997 633.25 203.997C625.361 203.997 617.794 207.132 612.215 212.711C606.636 218.29 603.501 225.856 603.501 233.746C603.501 241.636 606.636 249.203 612.215 254.782C617.794 260.361 625.361 263.495 633.25 263.495Z" fill="url(#paint13_radial_8_5)"/>
<path opacity="0.2" d="M522.745 229.501C528.382 229.501 533.788 227.262 537.774 223.276C541.759 219.29 543.998 213.885 543.998 208.248C543.998 202.611 541.759 197.205 537.774 193.22C533.788 189.234 528.382 186.995 522.745 186.995C517.109 186.995 511.703 189.234 507.717 193.22C503.731 197.205 501.492 202.611 501.492 208.248C501.492 213.885 503.731 219.29 507.717 223.276C511.703 227.262 517.109 229.501 522.745 229.501Z" fill="url(#paint14_radial_8_5)"/>
<path opacity="0.2" d="M378.246 255.005C383.882 255.005 389.288 252.766 393.274 248.78C397.26 244.794 399.499 239.388 399.499 233.752C399.499 228.115 397.26 222.709 393.274 218.723C389.288 214.738 383.882 212.499 378.246 212.499C372.609 212.499 367.203 214.738 363.218 218.723C359.232 222.709 356.993 228.115 356.993 233.752C356.993 239.388 359.232 244.794 363.218 248.78C367.203 252.766 372.609 255.005 378.246 255.005Z" fill="url(#paint15_radial_8_5)"/>
<path opacity="0.2" d="M667.245 357.009C681.899 357.009 695.952 351.187 706.314 340.826C716.676 330.464 722.498 316.41 722.498 301.756C722.498 287.102 716.676 273.048 706.314 262.687C695.952 252.325 681.899 246.503 667.245 246.503C652.591 246.503 638.537 252.325 628.175 262.687C617.813 273.048 611.992 287.102 611.992 301.756C611.992 316.41 617.813 330.464 628.175 340.826C638.537 351.187 652.591 357.009 667.245 357.009Z" fill="url(#paint16_radial_8_5)"/>
<path opacity="0.6" d="M616.259 339.996C623.579 340.098 630.847 338.744 637.639 336.014C644.432 333.283 650.614 329.23 655.827 324.09C661.04 318.95 665.179 312.825 668.004 306.071C670.829 299.317 672.284 292.069 672.284 284.748C672.284 277.427 670.829 270.179 668.004 263.426C665.179 256.672 661.04 250.547 655.827 245.407C650.614 240.266 644.432 236.213 637.639 233.483C630.847 230.752 623.579 229.399 616.259 229.501C601.605 229.501 587.551 235.322 577.189 245.684C566.828 256.046 561.006 270.1 561.006 284.754C561.006 299.408 566.828 313.461 577.189 323.823C587.551 334.185 601.605 339.996 616.259 339.996Z" fill="url(#paint17_radial_8_5)"/>
<path opacity="0.2" d="M641.752 365.499C656.406 365.499 670.459 359.678 680.821 349.316C691.183 338.954 697.004 324.9 697.004 310.247C697.004 295.593 691.183 281.539 680.821 271.177C670.459 260.815 656.406 254.994 641.752 254.994C627.098 254.994 613.044 260.815 602.682 271.177C592.32 281.539 586.499 295.593 586.499 310.247C586.499 324.9 592.32 338.954 602.682 349.316C613.044 359.678 627.098 365.499 641.752 365.499Z" fill="url(#paint18_radial_8_5)"/>
<path d="M203.998 399.504H688.503L645.997 960.5H238.003L203.998 399.504Z" fill="url(#paint19_linear_8_5)"/>
<path d="M773.505 926.495L645.997 960.5L688.503 399.504L849.994 442L773.505 926.495Z" fill="url(#paint20_linear_8_5)"/>
<path fill-rule="evenodd" clip-rule="evenodd" d="M500.46 511.295L503.204 399.493H401.794L402.918 505.786C385.215 509.742 368.223 516.391 352.537 525.5L349.004 399.504H247.389L279.007 960.5H364.808L361.384 839.3C375.682 846.551 390.896 851.83 406.612 854.996L407.746 960.5H489.388L492.089 851.388C505.966 847.335 519.297 841.603 531.786 834.32L527.79 960.5H617.674L647.282 399.504H545.559L541.368 531.689C528.662 523.16 514.909 516.305 500.45 511.295H500.46ZM674.136 952.992L706.002 944.502L769.141 420.73L720.52 407.919L674.136 952.992ZM724.15 939.662L749.178 932.987L833.845 437.754L786.586 425.31L724.15 939.662ZM577.987 679.991C577.987 755.098 517.106 815.989 441.989 815.989C366.871 815.989 305.99 755.109 305.99 679.991C305.99 604.873 366.871 543.993 441.989 543.993C517.106 543.993 577.987 604.873 577.987 679.991ZM500.514 753.391L482.205 694.142L526.58 661.228C527.268 660.718 527.784 660.01 528.06 659.199C528.336 658.388 528.358 657.513 528.123 656.689C527.888 655.865 527.408 655.133 526.746 654.589C526.085 654.045 525.273 653.716 524.419 653.645C505.784 652.141 487.111 651.154 468.421 650.685L445.996 588.984C445.697 588.165 445.152 587.457 444.438 586.958C443.723 586.458 442.872 586.19 441.999 586.19C441.127 586.19 440.276 586.458 439.561 586.958C438.847 587.457 438.302 588.165 438.003 588.984L415.578 650.685C396.566 651.16 377.878 652.165 359.569 653.645C358.717 653.719 357.908 654.051 357.249 654.597C356.591 655.142 356.114 655.875 355.882 656.698C355.649 657.521 355.673 658.395 355.95 659.204C356.226 660.013 356.743 660.719 357.43 661.228L401.794 694.131L383.474 753.38C383.214 754.223 383.222 755.126 383.497 755.964C383.773 756.802 384.302 757.534 385.011 758.058C385.72 758.582 386.575 758.873 387.457 758.89C388.339 758.908 389.204 758.651 389.933 758.155L441.999 722.713L494.066 758.155C494.794 758.653 495.66 758.913 496.542 758.897C497.424 758.882 498.28 758.592 498.991 758.069C499.702 757.546 500.232 756.814 500.509 755.976C500.786 755.138 500.795 754.235 500.536 753.391H500.514Z" fill="url(#paint21_linear_8_5)"/>
<path opacity="0.4" d="M182.75 892.501C188.385 892.501 193.789 890.262 197.774 886.277C201.759 882.293 203.997 876.888 203.997 871.253C203.997 865.618 201.759 860.213 197.774 856.228C193.789 852.244 188.385 850.005 182.75 850.005C177.114 850.005 171.71 852.244 167.725 856.228C163.741 860.213 161.502 865.618 161.502 871.253C161.502 876.888 163.741 882.293 167.725 886.277C171.71 890.262 177.114 892.501 182.75 892.501Z" fill="url(#paint22_radial_8_5)"/>
<path opacity="0.4" d="M148.745 918.004C154.381 918.004 159.787 915.765 163.773 911.779C167.759 907.794 169.998 902.388 169.998 896.751C169.998 891.114 167.759 885.709 163.773 881.723C159.787 877.737 154.381 875.498 148.745 875.498C143.108 875.498 137.702 877.737 133.717 881.723C129.731 885.709 127.492 891.114 127.492 896.751C127.492 902.388 129.731 907.794 133.717 911.779C137.702 915.765 143.108 918.004 148.745 918.004Z" fill="url(#paint23_radial_8_5)"/>
<path opacity="0.4" d="M174.248 918.004C179.885 918.004 185.291 915.765 189.276 911.779C193.262 907.794 195.501 902.388 195.501 896.751C195.501 891.114 193.262 885.709 189.276 881.723C185.291 877.737 179.885 875.498 174.248 875.498C168.612 875.498 163.206 877.737 159.22 881.723C155.234 885.709 152.995 891.114 152.995 896.751C152.995 902.388 155.234 907.794 159.22 911.779C163.206 915.765 168.612 918.004 174.248 918.004Z" fill="url(#paint24_radial_8_5)"/>
<path opacity="0.4" d="M208.254 934.996C211.044 934.996 213.807 934.446 216.385 933.379C218.963 932.311 221.305 930.746 223.278 928.773C225.251 926.8 226.816 924.457 227.884 921.879C228.952 919.301 229.501 916.538 229.501 913.748C229.501 910.958 228.952 908.195 227.884 905.617C226.816 903.039 225.251 900.697 223.278 898.724C221.305 896.751 218.963 895.186 216.385 894.118C213.807 893.05 211.044 892.5 208.254 892.5C202.618 892.5 197.214 894.739 193.229 898.724C189.244 902.708 187.006 908.113 187.006 913.748C187.006 919.383 189.244 924.788 193.229 928.773C197.214 932.757 202.618 934.996 208.254 934.996Z" fill="url(#paint25_radial_8_5)"/>
<path opacity="0.4" d="M888.256 926.495C893.891 926.495 899.295 924.256 903.28 920.271C907.265 916.287 909.503 910.882 909.503 905.247C909.503 899.612 907.265 894.207 903.28 890.223C899.295 886.238 893.891 883.999 888.256 883.999C882.62 883.999 877.216 886.238 873.231 890.223C869.246 894.207 867.008 899.612 867.008 905.247C867.008 910.882 869.246 916.287 873.231 920.271C877.216 924.256 882.62 926.495 888.256 926.495Z" fill="url(#paint26_radial_8_5)"/>
<path opacity="0.4" d="M883.999 892.501C890.762 892.501 897.247 889.814 902.029 885.032C906.811 880.25 909.498 873.765 909.498 867.002C909.498 860.24 906.811 853.754 902.029 848.972C897.247 844.19 890.762 841.504 883.999 841.504C877.237 841.504 870.751 844.19 865.969 848.972C861.187 853.754 858.501 860.24 858.501 867.002C858.501 873.765 861.187 880.25 865.969 885.032C870.751 889.814 877.237 892.501 883.999 892.501Z" fill="url(#paint27_radial_8_5)"/>
<path opacity="0.4" d="M841.504 892.501C848.266 892.501 854.752 889.814 859.534 885.032C864.316 880.25 867.002 873.765 867.002 867.002C867.002 860.24 864.316 853.754 859.534 848.972C854.752 844.19 848.266 841.504 841.504 841.504C834.741 841.504 828.256 844.19 823.474 848.972C818.692 853.754 816.005 860.24 816.005 867.002C816.005 873.765 818.692 880.25 823.474 885.032C828.256 889.814 834.741 892.501 841.504 892.501Z" fill="url(#paint28_radial_8_5)"/>
<path opacity="0.4" d="M811.744 883.999C819.634 883.999 827.201 880.865 832.78 875.286C838.359 869.707 841.493 862.14 841.493 854.25C841.493 846.36 838.359 838.794 832.78 833.215C827.201 827.636 819.634 824.501 811.744 824.501C803.854 824.501 796.287 827.636 790.708 833.215C785.129 838.794 781.995 846.36 781.995 854.25C781.995 862.14 785.129 869.707 790.708 875.286C796.287 880.865 803.854 883.999 811.744 883.999Z" fill="url(#paint29_radial_8_5)"/>
<path opacity="0.4" d="M199.752 918.004C207.643 918.004 215.211 914.869 220.791 909.289C226.371 903.709 229.506 896.141 229.506 888.25C229.506 880.359 226.371 872.791 220.791 867.21C215.211 861.63 207.643 858.496 199.752 858.496C191.861 858.496 184.292 861.63 178.712 867.21C173.132 872.791 169.998 880.359 169.998 888.25C169.998 896.141 173.132 903.709 178.712 909.289C184.292 914.869 191.861 918.004 199.752 918.004Z" fill="url(#paint30_radial_8_5)"/>
<path fill-rule="evenodd" clip-rule="evenodd" d="M798.998 858.496C805.76 858.498 812.244 861.187 817.025 865.969C821.805 870.752 824.491 877.237 824.491 883.999C829.363 883.997 834.18 885.041 838.614 887.063C843.048 889.084 846.996 892.034 850.19 895.714C853.384 899.394 855.75 903.718 857.127 908.392C858.505 913.066 858.861 917.982 858.173 922.806C857.485 927.63 855.769 932.25 853.139 936.352C850.51 940.455 847.03 943.945 842.934 946.585C838.839 949.225 834.223 950.954 829.401 951.656C824.579 952.357 819.663 952.013 814.985 950.648C813.219 956.796 809.208 962.056 803.745 965.384C798.283 968.711 791.769 969.864 785.496 968.613C779.223 967.362 773.65 963.799 769.882 958.63C766.114 953.461 764.427 947.065 765.155 940.71C759.354 937.996 754.583 933.484 751.552 927.842C748.52 922.201 747.389 915.732 748.327 909.397C749.265 903.062 752.221 897.198 756.757 892.677C761.293 888.156 767.167 885.219 773.505 884.302V883.999C773.505 877.238 776.191 870.754 780.971 865.973C785.752 861.192 792.237 858.496 798.998 858.496Z" fill="url(#paint31_radial_8_5)"/>
<defs>
<radialGradient id="paint0_radial_8_5" cx="0" cy="0" r="1" gradientUnits="userSpaceOnUse" gradientTransform="translate(518.5 935.504) rotate(-90) scale(93.9998 521.273)">
<stop offset="0.286" stop-color="#7D2889"/>
<stop offset="0.724" stop-color="#FF66D9" stop-opacity="0.41"/>
<stop offset="1" stop-color="white" stop-opacity="0"/>
</radialGradient>
<radialGradient id="paint1_radial_8_5" cx="0" cy="0" r="1" gradientUnits="userSpaceOnUse" gradientTransform="translate(518.5 422.956) rotate(-90) scale(414.455 521.273)">
<stop stop-color="#FFCA45"/>
<stop offset="0.453" stop-color="#FF66D9" stop-opacity="0.36"/>
<stop offset="1" stop-color="white" stop-opacity="0"/>
</radialGradient>
<radialGradient id="paint2_radial_8_5" cx="0" cy="0" r="1" gradientUnits="userSpaceOnUse" gradientTransform="translate(505.754 858.506) rotate(180) scale(408 408)">
<stop offset="0.432" stop-color="#FF8B54"/>
<stop offset="0.76" stop-color="#FFBB8D"/>
<stop offset="1" stop-color="#F9DDD1"/>
</radialGradient>
<radialGradient id="paint3_radial_8_5" cx="0" cy="0" r="1" gradientUnits="userSpaceOnUse" gradientTransform="translate(514.255 301.745) rotate(-90) scale(114.751 305.234)">
<stop offset="0.302" stop-color="#F9DDD1"/>
<stop offset="0.674" stop-color="#FFBB8D"/>
<stop offset="1" stop-color="#FF8B54"/>
</radialGradient>
<radialGradient id="paint4_radial_8_5" cx="0" cy="0" r="1" gradientUnits="userSpaceOnUse" gradientTransform="translate(497.242 323.501) rotate(90) scale(76)">
<stop offset="0.375" stop-color="#FFF4EB"/>
<stop offset="1" stop-color="#FFF3EB" stop-opacity="0"/>
</radialGradient>
<radialGradient id="paint5_radial_8_5" cx="0" cy="0" r="1" gradientUnits="userSpaceOnUse" gradientTransform="translate(471.749 296.496) rotate(90) scale(52 52)">
<stop offset="0.375" stop-color="#FFF4EB"/>
<stop offset="1" stop-color="#FFF3EB" stop-opacity="0"/>
</radialGradient>
<radialGradient id="paint6_radial_8_5" cx="0" cy="0" r="1" gradientUnits="userSpaceOnUse" gradientTransform="translate(454.746 338.991) rotate(90) scale(52)">
<stop offset="0.375" stop-color="#FFF4EB"/>
<stop offset="1" stop-color="#FFF3EB" stop-opacity="0"/>
</radialGradient>
<radialGradient id="paint7_radial_8_5" cx="0" cy="0" r="1" gradientUnits="userSpaceOnUse" gradientTransform="translate(293.244 364.495) rotate(90) scale(52)">
<stop offset="0.375" stop-color="#FFF4EB"/>
<stop offset="1" stop-color="#FFF3EB" stop-opacity="0"/>
</radialGradient>
<radialGradient id="paint8_radial_8_5" cx="0" cy="0" r="1" gradientUnits="userSpaceOnUse" gradientTransform="translate(327.249 339.002) rotate(90) scale(52)">
<stop offset="0.375" stop-color="#FFF4EB"/>
<stop offset="1" stop-color="#FFF3EB" stop-opacity="0"/>
</radialGradient>
<radialGradient id="paint9_radial_8_5" cx="0" cy="0" r="1" gradientUnits="userSpaceOnUse" gradientTransform="translate(327.249 380.006) rotate(90) scale(28)">
<stop offset="0.375" stop-color="#FFF4EB"/>
<stop offset="1" stop-color="#FFF3EB" stop-opacity="0"/>
</radialGradient>
<radialGradient id="paint10_radial_8_5" cx="0" cy="0" r="1" gradientUnits="userSpaceOnUse" gradientTransform="translate(794.763 363.004) rotate(90) scale(28 28)">
<stop offset="0.375" stop-color="#FFF4EB"/>
<stop offset="1" stop-color="#FFF3EB" stop-opacity="0"/>
</radialGradient>
<radialGradient id="paint11_radial_8_5" cx="0" cy="0" r="1" gradientUnits="userSpaceOnUse" gradientTransform="translate(828.747 405.002) rotate(90) scale(20 20)">
<stop offset="0.375" stop-color="#FFF4EB"/>
<stop offset="1" stop-color="#FFF3EB" stop-opacity="0"/>
</radialGradient>
<radialGradient id="paint12_radial_8_5" cx="0" cy="0" r="1" gradientUnits="userSpaceOnUse" gradientTransform="translate(786.24 397.495) rotate(90) scale(36)">
<stop offset="0.375" stop-color="#FFF4EB"/>
<stop offset="1" stop-color="#FFF3EB" stop-opacity="0"/>
</radialGradient>
<radialGradient id="paint13_radial_8_5" cx="0" cy="0" r="1" gradientUnits="userSpaceOnUse" gradientTransform="translate(633.24 235.507) rotate(90) scale(28)">
<stop offset="0.375" stop-color="#FFF4EB"/>
<stop offset="1" stop-color="#FFF3EB" stop-opacity="0"/>
</radialGradient>
<radialGradient id="paint14_radial_8_5" cx="0" cy="0" r="1" gradientUnits="userSpaceOnUse" gradientTransform="translate(522.756 209.496) rotate(90) scale(20.0001 20.0001)">
<stop offset="0.375" stop-color="#FFF4EB"/>
<stop offset="1" stop-color="#FFF3EB" stop-opacity="0"/>
</radialGradient>
<radialGradient id="paint15_radial_8_5" cx="0" cy="0" r="1" gradientUnits="userSpaceOnUse" gradientTransform="translate(378.246 235.01) rotate(90) scale(19.9999 20)">
<stop offset="0.375" stop-color="#FFF4EB"/>
<stop offset="1" stop-color="#FFF3EB" stop-opacity="0"/>
</radialGradient>
<radialGradient id="paint16_radial_8_5" cx="0" cy="0" r="1" gradientUnits="userSpaceOnUse" gradientTransform="translate(667.256 304.997) rotate(90) scale(52 52.0001)">
<stop offset="0.375" stop-color="#FFF4EB"/>
<stop offset="1" stop-color="#FFF3EB" stop-opacity="0"/>
</radialGradient>
<radialGradient id="paint17_radial_8_5" cx="0" cy="0" r="1" gradientUnits="userSpaceOnUse" gradientTransform="translate(616.248 287.994) rotate(90) scale(52 52)">
<stop offset="0.375" stop-color="#FFF4EB"/>
<stop offset="1" stop-color="#FFF3EB" stop-opacity="0"/>
</radialGradient>
<radialGradient id="paint18_radial_8_5" cx="0" cy="0" r="1" gradientUnits="userSpaceOnUse" gradientTransform="translate(641.752 313.498) rotate(90) scale(52 52.0001)">
<stop offset="0.375" stop-color="#FFF4EB"/>
<stop offset="1" stop-color="#FFF3EB" stop-opacity="0"/>
</radialGradient>
<linearGradient id="paint19_linear_8_5" x1="645.997" y1="960.5" x2="364.722" y2="227.341" gradientUnits="userSpaceOnUse">
<stop stop-color="#E0B1CC"/>
<stop offset="0.431" stop-color="#FFF1F1"/>
<stop offset="1" stop-color="#FFC9A5"/>
</linearGradient>
<linearGradient id="paint20_linear_8_5" x1="645.997" y1="573.753" x2="901.002" y2="573.753" gradientUnits="userSpaceOnUse">
<stop stop-color="#D16AE9"/>
<stop offset="1" stop-color="#FF661D"/>
</linearGradient>
<linearGradient id="paint21_linear_8_5" x1="195.636" y1="399.504" x2="811.625" y2="924.885" gradientUnits="userSpaceOnUse">
<stop stop-color="#FF661D"/>
<stop offset="0.5" stop-color="#CE3A00"/>
<stop offset="1" stop-color="#A60A5E"/>
</linearGradient>
<radialGradient id="paint22_radial_8_5" cx="0" cy="0" r="1" gradientUnits="userSpaceOnUse" gradientTransform="translate(182.75 872.506) rotate(90) scale(20 20.0001)">
<stop offset="0.375" stop-color="#F9DDD1"/>
<stop offset="1" stop-color="#FFF3EB" stop-opacity="0"/>
</radialGradient>
<radialGradient id="paint23_radial_8_5" cx="0" cy="0" r="1" gradientUnits="userSpaceOnUse" gradientTransform="translate(148.756 898.01) rotate(90) scale(20 20.0001)">
<stop offset="0.375" stop-color="#F9DDD1"/>
<stop offset="1" stop-color="#FFF3EB" stop-opacity="0"/>
</radialGradient>
<radialGradient id="paint24_radial_8_5" cx="0" cy="0" r="1" gradientUnits="userSpaceOnUse" gradientTransform="translate(174.259 897.999) rotate(90) scale(20 20.0001)">
<stop offset="0.375" stop-color="#F9DDD1"/>
<stop offset="1" stop-color="#FFF3EB" stop-opacity="0"/>
</radialGradient>
<radialGradient id="paint25_radial_8_5" cx="0" cy="0" r="1" gradientUnits="userSpaceOnUse" gradientTransform="translate(208.254 915.012) rotate(90) scale(19.9999 19.9999)">
<stop offset="0.375" stop-color="#F9DDD1"/>
<stop offset="1" stop-color="#FFF3EB" stop-opacity="0"/>
</radialGradient>
<radialGradient id="paint26_radial_8_5" cx="0" cy="0" r="1" gradientUnits="userSpaceOnUse" gradientTransform="translate(888.256 906.511) rotate(90) scale(19.9999)">
<stop offset="0.375" stop-color="#F9DDD1"/>
<stop offset="1" stop-color="#FFF3EB" stop-opacity="0"/>
</radialGradient>
<radialGradient id="paint27_radial_8_5" cx="0" cy="0" r="1" gradientUnits="userSpaceOnUse" gradientTransform="translate(883.999 868.488) rotate(90) scale(24.0001)">
<stop offset="0.375" stop-color="#F9DDD1"/>
<stop offset="1" stop-color="#FFF3EB" stop-opacity="0"/>
</radialGradient>
<radialGradient id="paint28_radial_8_5" cx="0" cy="0" r="1" gradientUnits="userSpaceOnUse" gradientTransform="translate(841.493 868.498) rotate(90) scale(24.0001)">
<stop offset="0.375" stop-color="#F9DDD1"/>
<stop offset="1" stop-color="#FFF3EB" stop-opacity="0"/>
</radialGradient>
<radialGradient id="paint29_radial_8_5" cx="0" cy="0" r="1" gradientUnits="userSpaceOnUse" gradientTransform="translate(811.755 856) rotate(90) scale(28.0001 28.0001)">
<stop offset="0.375" stop-color="#F9DDD1"/>
<stop offset="1" stop-color="#FFF3EB" stop-opacity="0"/>
</radialGradient>
<radialGradient id="paint30_radial_8_5" cx="0" cy="0" r="1" gradientUnits="userSpaceOnUse" gradientTransform="translate(199.752 890.005) rotate(90) scale(28.0001 28.0001)">
<stop offset="0.375" stop-color="#F9DDD1"/>
<stop offset="1" stop-color="#FFF3EB" stop-opacity="0"/>
</radialGradient>
<radialGradient id="paint31_radial_8_5" cx="0" cy="0" r="1" gradientUnits="userSpaceOnUse" gradientTransform="translate(824.502 913.753) rotate(111.038) scale(59.1956 59.1956)">
<stop stop-color="#FDF7F2"/>
<stop offset="1" stop-color="#FFD8BD"/>
</radialGradient>
</defs>
</svg>
