<svg width="24" height="24" viewBox="0 0 24 24" fill="none" xmlns="http://www.w3.org/2000/svg">
<path fill-rule="evenodd" clip-rule="evenodd" d="M13.1875 2.4851C17.215 3.06749 20.3109 6.56832 20.3109 10.8V15.9046C21.5562 15.9968 22.7865 16.1094 24 16.2416L23.7454 18.6278C19.9811 18.2176 16.0476 18 12 18C7.95235 18 4.01899 18.2176 0.254563 18.6278L0 16.2416C1.21358 16.1094 2.44385 15.9968 3.68911 15.9046V10.8C3.68911 6.56814 6.78529 3.06719 10.813 2.48503V0H13.1875V2.4851ZM17.9364 15.7544V10.8C17.9364 7.4863 15.2785 4.8 12 4.8C8.72145 4.8 6.06366 7.4863 6.06366 10.8V15.7544C8.01153 15.6524 9.99243 15.6 12 15.6C14.0077 15.6 15.9885 15.6524 17.9364 15.7544ZM7.99404 20.8454C8.03728 22.2208 9.80496 24 11.9995 24C14.1941 24 15.9617 22.2208 16.0049 20.8454C16.0133 20.5787 15.7705 20.4 15.5064 20.4H8.49254C8.22841 20.4 7.98565 20.5787 7.99404 20.8454Z" fill="white"/>
</svg>
