<svg 
width="current" 
height="current" 
viewBox="0 0 100 100" 
fill="none" 
xmlns="http://www.w3.org/2000/svg">
<path fill-rule="evenodd" clip-rule="evenodd" d="M50 8.33333C26.9881 8.33333 8.33333 26.9881 8.33333 50C8.33333 73.0117 26.9881 91.6667 50 91.6667C73.0117 91.6667 91.6667 73.0117 91.6667 50C91.6667 26.9881 73.0117 8.33333 50 8.33333ZM0 50C0 22.3857 22.3857 0 50 0C77.6142 0 100 22.3857 100 50C100 77.6142 77.6142 100 50 100C22.3857 100 0 77.6142 0 50ZM54.1667 41.6667V75H45.8333V41.6667H54.1667ZM50 35.4167C53.4517 35.4167 56.25 32.6185 56.25 29.1667C56.25 25.7149 53.4517 22.9167 50 22.9167C46.5483 22.9167 43.75 25.7149 43.75 29.1667C43.75 32.6185 46.5483 35.4167 50 35.4167Z" fill="white"/>
</svg>
