<svg width="24" height="24" viewBox="0 0 24 24" fill="none" xmlns="http://www.w3.org/2000/svg">
<path fill-rule="evenodd" clip-rule="evenodd" d="M17.6901 9.95066C17.6901 14.225 14.225 17.6901 9.95066 17.6901C5.67631 17.6901 2.21126 14.225 2.21126 9.95066C2.21126 5.67631 5.67631 2.21126 9.95066 2.21126C14.225 2.21126 17.6901 5.67631 17.6901 9.95066ZM16.1618 17.7253C14.4594 19.087 12.3001 19.9013 9.95066 19.9013C4.45507 19.9013 0 15.4463 0 9.95066C0 4.45507 4.45507 0 9.95066 0C15.4463 0 19.9013 4.45507 19.9013 9.95066C19.9013 12.3001 19.087 14.4594 17.7253 16.1618L24 22.4364L22.4364 24L16.1618 17.7253Z" fill="white"/>
</svg>
