<svg xmlns="http://www.w3.org/2000/svg" width="250" height="250" viewBox="0 0 250 250" fill="none">
  <path fill-rule="evenodd" clip-rule="evenodd" d="M249.125 176.537C249.48 195.956 242.236 214.745 228.937 228.9C214.814 242.255 195.996 249.509 176.562 249.087C155.925 250.262 94.0623 250.262 73.4373 249.087C54.0157 249.439 35.2239 242.196 21.0623 228.9C7.71918 214.774 0.46793 195.965 0.874805 176.537C-0.287695 155.9 -0.287695 94.0375 0.874805 73.4125C0.494305 53.9857 7.74155 35.1833 21.0623 21.0375C35.2208 7.744 54.0202 0.520375 73.4373 0.9125C94.0748 -0.2625 155.937 -0.2625 176.562 0.9125C195.986 0.54925 214.782 7.79412 228.937 21.1C242.281 35.2266 249.531 54.0347 249.125 73.4625C250.287 94.1 250.287 155.9 249.125 176.537ZM227.5 125C227.5 106.812 229 67.775 222.5 51.325C218.215 40.4599 209.615 31.8594 198.75 27.575C182.35 21.1125 143.262 22.575 125.075 22.575C106.887 22.575 67.8498 21.0625 51.3998 27.575C40.5372 31.8631 31.9381 40.4624 27.6498 51.325C21.1873 67.725 22.6498 106.812 22.6498 125C22.6498 143.188 21.1373 182.225 27.6498 198.675C31.9418 209.535 40.5397 218.132 51.3998 222.425C67.7998 228.887 106.9 227.425 125.075 227.425C143.25 227.425 182.3 228.937 198.75 222.425C209.612 218.137 218.211 209.537 222.5 198.675C228.987 182.275 227.5 143.188 227.5 125ZM189.125 125C189.125 160.39 160.44 189.08 125.05 189.087C89.6602 189.095 60.9637 160.415 60.9498 125.025C60.9361 89.6354 89.6102 60.9332 125 60.9124C142.01 60.8792 158.332 67.6199 170.362 79.6451C182.392 91.6704 189.151 107.99 189.125 125ZM166.7 125C166.7 101.995 148.055 83.3445 125.05 83.3375C102.045 83.3306 83.3887 101.97 83.3748 124.975C83.3611 147.98 101.995 166.641 125 166.662C148.007 166.649 166.66 148.007 166.687 125H166.7ZM191.7 73.2376C183.416 73.2376 176.7 66.5217 176.7 58.2375C176.7 49.9532 183.416 43.2375 191.7 43.2375C199.984 43.2375 206.7 49.9532 206.7 58.2375C206.724 62.2164 205.155 66.0396 202.345 68.8566C199.535 71.6736 195.716 73.251 191.737 73.2376H191.7Z" fill="black"/>
</svg>