<svg xmlns="http://www.w3.org/2000/svg" width="274" height="222" viewBox="0 0 274 222" fill="none">
  <path fill-rule="evenodd" clip-rule="evenodd" d="M245.6 62.5876C245.892 104.915 229.206 145.594 199.275 175.525C169.344 205.456 128.665 222.143 86.3375 221.85C55.8653 221.93 26.019 213.205 0.387451 196.725C4.8747 197.214 9.38633 197.444 13.9 197.413C39.096 197.48 63.5798 189.056 83.3999 173.5C59.4297 173.09 38.3713 157.488 31 134.675C34.4977 135.234 38.033 135.526 41.575 135.55C46.5442 135.535 51.4918 134.893 56.3 133.638C30.2046 128.334 11.4587 105.379 11.475 78.7501V78.0126C19.2293 82.3457 27.8987 84.7828 36.7749 85.1251C12.1223 68.6666 4.52808 35.8693 19.4375 10.2501C47.8714 45.252 89.8245 66.5421 134.862 68.8251C133.969 64.6126 133.511 60.3189 133.5 56.0126C133.517 33.0369 147.56 12.4005 168.926 3.95317C190.292 -4.49408 214.651 0.960052 230.375 17.7126C242.902 15.2928 254.914 10.7164 265.875 4.18755C261.695 17.1118 252.944 28.0673 241.262 35C252.377 33.7457 263.244 30.8387 273.5 26.375C265.832 37.5285 256.341 47.3112 245.425 55.3126C245.6 57.7501 245.6 60.175 245.6 62.5876Z" fill="black"/>
</svg>