<svg xmlns="http://www.w3.org/2000/svg" width="276" height="194" viewBox="0 0 276 194" fill="none">
  <path fill-rule="evenodd" clip-rule="evenodd" d="M269.75 30.375C266.6 18.4841 257.363 9.16637 245.5 5.9125C224 0.124998 138 0.125 138 0.125C138 0.125 51.9997 0.124998 30.4997 5.9125C18.6368 9.16637 9.39993 18.4841 6.24968 30.375C2.28318 52.3586 0.358346 74.6625 0.499684 97C0.358346 119.338 2.28318 141.641 6.24968 163.625C9.41106 175.531 18.6752 184.853 30.5622 188.088C51.9997 193.875 138.063 193.875 138.063 193.875C138.063 193.875 224.063 193.875 245.5 188.088C257.363 184.834 266.6 175.516 269.75 163.625C273.716 141.641 275.641 119.338 275.5 97C275.641 74.6625 273.716 52.3586 269.75 30.375ZM109.875 137.875V56.1125L181.75 97L109.875 137.875Z" fill="black"/>
</svg>