<svg width="current" height="current" viewBox="0 0 1077 291" fill="current" xmlns="http://www.w3.org/2000/svg">
<g clip-path="url(#clip0_8_61)">
<path d="M1019.4 138.522L1077 291C1060.02 288.572 1043.05 285.536 1025.76 282.808L993.314 198.546L959.965 275.844C943.595 273.116 927.516 272.198 911.146 270.08L969.668 136.704L916.603 0H965.73L995.442 76.3799L1027.28 0H1077L1019.4 138.522ZM877.797 0H833.226V264.325C847.777 265.234 862.937 265.834 877.797 267.652V0ZM794.711 261.288C754.086 258.561 713.453 256.142 671.919 255.224V0H717.391V212.184C743.473 212.793 769.547 214.911 794.711 216.12V261.288ZM623.4 103.364V148.832H561.25V252.196H516.369V0H643.717V45.4679H561.25V103.364H623.4ZM439.958 45.4679V254.624C424.798 254.624 409.337 254.624 394.477 255.224V45.4679H347.477V0H487.258V45.4679H439.958ZM298.359 151.251C278.351 151.251 254.697 151.251 237.718 152.169V219.766C264.4 217.939 291.083 215.82 318.066 214.911V258.561L192.237 268.571V0H318.066V45.4679H237.718V106.692C255.306 106.692 282.289 105.783 298.359 105.783V151.251ZM46.3904 125.794V284.627C30.0205 286.454 15.4604 288.572 0 291V0H43.3619L102.484 165.206V0H147.965V272.198C131.896 274.935 115.526 275.844 98.2373 278.262L46.3904 125.794Z" fill="black"/>
</g>
<defs>
<clipPath id="clip0_8_61">
<rect width="1077" height="291" fill="white"/>
</clipPath>
</defs>
</svg>
